<svg width="64px" height="59px" viewBox="0 0 64 59" version="1.1" xmlns="http://www.w3.org/2000/svg" xmlns:xlink="http://www.w3.org/1999/xlink" xmlns:sketch="http://www.bohemiancoding.com/sketch/ns">
  <title>
    Thumb-up
  </title>
  <desc>
    Created with Sketch.
  </desc>
  <defs/>
  <g id="Page-1" stroke="none" stroke-width="1" fill="none" fill-rule="evenodd" sketch:type="MSPage">
    <g id="Thumb-up" sketch:type="MSLayerGroup" transform="translate(1.000000, 2.000000)" stroke="#6B6C6E" stroke-width="2">
      <path d="M18 20L2.9 20C0.1 20 0 22.1 0 24.8L0 49.1C0 51.7 0.1 53.9 2.9 53.9L18 53.9C20.8 53.9 20.9 51.8 20.9 49.1L20.9 24.8C20.9 22.2 20.8 20 18 20L18 20Z" id="Shape" sketch:type="MSShapeGroup" fill="#98bde2"/>
      <path d="M20.7 50.3L22.1 50.3C25.9 50.2 28.4 56 31.3 56L53.9 56C56.7 56 57.3 51.8 57.2 50 57.2 50 60.7 48.4 59.1 42 59.3 41.9 61.1 40.2 61.1 36.9 61.1 33.6 59.2 32 59.2 32 59.2 32 61.1 29.9 61.1 26.8 61.1 23.7 58.4 22 55.6 22L47.3 22C40.1 22 40.7 18.1 40.7 18.1 40.7 18.1 39.9 8 37.3 3.3 34.1-2.5 27.7-0.6 30.1 7 31.9 12.6 23.8 21 20.8 23.8" id="Shape" sketch:type="MSShapeGroup" fill="#98bde2"/>
    </g>
  </g>
</svg>
